<svg width="249" height="28" viewBox="0 0 249 28" fill="none" xmlns="http://www.w3.org/2000/svg">
<path d="M8.92 11.159C10.28 11.159 11.3867 10.8523 12.24 10.239C13.0933 9.59897 13.52 8.65231 13.52 7.39897C13.52 6.30564 13.08 5.51897 12.2 5.03897C11.3467 4.55897 10.28 4.31897 9 4.31897C8.44 4.31897 7.92 4.35897 7.44 4.43897C7.54667 6.09231 7.6 8.30564 7.6 11.079C7.89333 11.1323 8.33333 11.159 8.92 11.159ZM7.4 14.919C7.4 16.1456 7.29333 18.679 7.08 22.519C8.30667 23.1856 9.48 23.519 10.6 23.519C11.7467 23.519 12.6667 23.159 13.36 22.439C14.08 21.6923 14.44 20.639 14.44 19.279C14.44 18.0256 14.04 16.9723 13.24 16.119C12.4667 15.239 11.2933 14.799 9.72 14.799C8.86667 14.799 8.09333 14.839 7.4 14.919ZM0.8 25.079C1.22667 22.039 1.44 17.5856 1.44 11.719C1.44 6.75897 1.26667 3.10564 0.92 0.758974C3.21333 0.438973 5.66667 0.278973 8.28 0.278973C9.85333 0.278973 11.2933 0.398973 12.6 0.638973C13.9067 0.852307 15.1067 1.21231 16.2 1.71897C17.32 2.22564 18.1867 2.94564 18.8 3.87897C19.44 4.78564 19.76 5.87897 19.76 7.15897C19.76 9.93231 18.3333 11.7856 15.48 12.719C17.3467 13.3323 18.6933 14.1856 19.52 15.279C20.3467 16.3456 20.76 17.7723 20.76 19.559C20.76 21.3723 20.24 22.9056 19.2 24.159C18.1867 25.4123 16.9067 26.3056 15.36 26.839C13.84 27.3456 12.1333 27.599 10.24 27.599C6.50667 27.599 3.36 26.759 0.8 25.079ZM35.8888 11.559C36.8221 10.119 37.8354 8.10564 38.9288 5.51897C40.0488 2.90564 40.6221 1.15897 40.6488 0.278973C44.4888 0.678973 46.4088 1.67897 46.4088 3.27897C46.4088 3.51897 46.3154 3.85231 46.1288 4.27897C45.9688 4.67897 45.6888 5.18564 45.2888 5.79897C44.9154 6.41231 44.5554 6.98564 44.2088 7.51897C43.8621 8.02564 43.3688 8.70564 42.7288 9.55897C42.1154 10.4123 41.6488 11.0523 41.3288 11.479C41.0088 11.9056 40.5021 12.5723 39.8088 13.479C39.1154 14.3856 38.6888 14.9456 38.5288 15.159V19.079C38.5288 22.0656 38.8488 24.6256 39.4888 26.759C38.5021 27.1323 37.2888 27.319 35.8488 27.319C35.3154 27.319 34.8754 27.279 34.5287 27.199C34.1821 27.1456 33.8088 27.0256 33.4088 26.839C33.0354 26.6256 32.7554 26.279 32.5688 25.799C32.3821 25.2923 32.2888 24.6523 32.2888 23.879C32.2888 23.3723 32.3021 22.4256 32.3288 21.039C32.3554 19.6256 32.3688 18.599 32.3688 17.959V15.439C28.4754 8.10564 25.5821 4.02564 23.6887 3.19897C25.0488 1.35897 26.4754 0.438973 27.9688 0.438973C29.4621 0.438973 30.6888 1.27897 31.6488 2.95897C32.4754 4.45231 33.8888 7.31897 35.8888 11.559ZM74.0197 15.679C73.593 14.2123 73.0864 12.3323 72.4997 10.039C71.913 7.71897 71.5664 6.37231 71.4597 5.99897C69.8064 11.759 68.873 14.9856 68.6597 15.679C69.9397 15.7323 70.953 15.759 71.6997 15.759C72.7397 15.759 73.513 15.7323 74.0197 15.679ZM71.1797 19.719C70.0864 19.719 68.8997 19.6656 67.6197 19.559C65.8064 23.9323 64.713 26.719 64.3397 27.919C63.4064 27.7856 62.7264 27.679 62.2997 27.599C61.873 27.519 61.3797 27.3856 60.8197 27.199C60.2597 26.9856 59.873 26.719 59.6597 26.399C59.4464 26.079 59.3397 25.679 59.3397 25.199C59.3397 24.639 59.793 23.279 60.6997 21.119C61.633 18.959 62.873 15.9723 64.4197 12.159C65.9664 8.34564 67.273 4.61231 68.3397 0.958974C69.593 0.772306 70.6197 0.678973 71.4197 0.678973C73.6597 0.678973 75.0997 1.65231 75.7397 3.59897C77.713 9.67897 79.1264 13.8123 79.9797 15.999C82.0597 21.4123 83.473 24.8523 84.2197 26.319C82.9664 27.1723 81.7264 27.599 80.4997 27.599C78.9264 27.599 77.913 27.0923 77.4597 26.079C77.1664 25.3856 76.7664 24.399 76.2597 23.119C75.7797 21.839 75.3264 20.679 74.8997 19.639C72.8197 19.6923 71.5797 19.719 71.1797 19.719ZM87.83 18.239V9.95897C87.83 7.02564 87.71 3.99897 87.47 0.878973C88.4833 0.66564 89.5367 0.558974 90.63 0.558974C91.6433 0.558974 92.4967 0.732307 93.19 1.07897C93.91 1.42564 94.27 1.97231 94.27 2.71897C94.27 2.85231 94.2167 3.91897 94.11 5.91897C94.03 7.89231 93.99 9.55897 93.99 10.919V18.759C93.99 20.8123 94.0967 22.2656 94.31 23.119C95.4833 23.1723 96.4433 23.199 97.19 23.199C101.537 23.199 104.337 22.8923 105.59 22.279C105.91 23.079 106.07 23.999 106.07 25.039C106.07 25.9456 105.71 26.5456 104.99 26.839C104.297 27.1323 102.897 27.279 100.79 27.279C94.4167 27.279 90.7233 27.2523 89.71 27.199C88.9367 27.1723 88.4167 26.9856 88.15 26.639C87.8833 26.2923 87.75 25.719 87.75 24.919C87.75 24.0123 87.7633 22.8123 87.79 21.319C87.8167 19.799 87.83 18.7723 87.83 18.239ZM116.343 4.75897C116.449 5.61231 116.503 7.66564 116.503 10.919H119.663C121.369 10.919 122.943 10.839 124.383 10.679C124.543 11.0256 124.623 11.5856 124.623 12.359C124.623 13.3456 124.396 14.039 123.943 14.439C123.489 14.8123 122.676 14.999 121.503 14.999H116.503C116.503 19.5056 116.609 22.2123 116.823 23.119C117.996 23.1723 118.943 23.199 119.663 23.199C124.009 23.199 126.809 22.8923 128.062 22.279C128.383 23.079 128.543 23.999 128.543 25.039C128.543 25.9456 128.183 26.5456 127.463 26.839C126.769 27.1323 125.369 27.279 123.263 27.279C116.889 27.279 113.196 27.2523 112.183 27.199C111.409 27.1723 110.889 26.9856 110.623 26.639C110.356 26.2923 110.223 25.719 110.223 24.919C110.223 24.4923 110.236 23.5056 110.263 21.959C110.289 20.4123 110.303 19.1723 110.303 18.239V10.239C110.303 6.47897 110.129 3.37231 109.783 0.918974C113.223 0.678974 116.729 0.558974 120.303 0.558974C124.143 0.558974 126.636 0.772307 127.783 1.19897C128.289 1.38564 128.543 1.91897 128.543 2.79897C128.543 3.83897 128.383 4.74564 128.062 5.51897C126.303 4.95897 123.329 4.67897 119.143 4.67897C118.609 4.67897 117.676 4.70564 116.343 4.75897ZM132.072 24.599C132.072 24.1456 132.285 23.559 132.712 22.839C133.165 22.0923 133.778 21.279 134.552 20.399C135.325 19.4923 136.058 18.6656 136.752 17.919C137.472 17.1456 138.285 16.3056 139.192 15.399C140.098 14.4656 140.725 13.799 141.072 13.399C139.605 11.0256 138.018 8.95897 136.312 7.19897C134.632 5.41231 133.192 4.13231 131.992 3.35897C133.672 1.30564 135.285 0.278973 136.832 0.278973C137.738 0.278973 138.498 0.478973 139.112 0.878973C139.752 1.27897 140.338 1.94564 140.872 2.87897C142.232 5.27897 143.418 7.73231 144.432 10.239C147.072 5.83897 148.525 2.51897 148.792 0.278973C152.658 0.705641 154.592 1.70564 154.592 3.27897C154.592 3.62564 154.432 4.09231 154.112 4.67897C153.818 5.23897 153.352 5.91897 152.712 6.71897C152.098 7.51897 151.538 8.22564 151.032 8.83897C150.525 9.42564 149.818 10.2256 148.912 11.239C148.032 12.2523 147.418 12.959 147.072 13.359C148.645 16.0256 150.352 18.3856 152.192 20.439C154.032 22.4923 155.578 23.9056 156.832 24.679C155.232 26.6256 153.538 27.599 151.752 27.599C150.312 27.599 149.258 26.959 148.592 25.679C145.738 20.4256 144.125 17.4123 143.752 16.639C142.472 18.1056 141.232 19.919 140.032 22.079C138.832 24.2123 138.098 26.0523 137.832 27.599C136.258 27.4656 134.898 27.159 133.752 26.679C132.632 26.1723 132.072 25.479 132.072 24.599ZM160.697 25.079C161.043 22.6256 161.243 18.1456 161.297 11.639C161.297 6.97231 161.123 3.34564 160.777 0.758974C162.617 0.438973 164.937 0.278973 167.737 0.278973C170.057 0.278973 172.15 0.50564 174.017 0.958974C175.91 1.41231 177.63 2.14564 179.177 3.15897C180.723 4.14564 181.923 5.54564 182.777 7.35897C183.63 9.17231 184.057 11.3456 184.057 13.879C184.057 17.879 182.857 21.1723 180.457 23.759C178.057 26.319 174.643 27.599 170.217 27.599C166.137 27.599 162.963 26.759 160.697 25.079ZM167.337 4.39897C167.443 5.97231 167.497 7.83897 167.497 9.99897C167.497 15.199 167.31 19.3456 166.937 22.439C168.403 23.1856 169.777 23.559 171.057 23.559C173.137 23.559 174.723 22.719 175.817 21.039C176.937 19.3323 177.497 17.2123 177.497 14.679C177.497 11.239 176.777 8.65231 175.337 6.91897C173.923 5.15897 171.883 4.27897 169.217 4.27897C168.577 4.27897 167.95 4.31897 167.337 4.39897ZM189.424 17.959V9.95897C189.424 7.02564 189.304 3.99897 189.064 0.878973C190.077 0.66564 191.13 0.558974 192.224 0.558974C193.237 0.558974 194.09 0.745641 194.784 1.11897C195.504 1.46564 195.864 2.01231 195.864 2.75897C195.864 2.89231 195.81 3.97231 195.704 5.99897C195.624 7.99897 195.584 9.67897 195.584 11.039V19.079C195.584 22.0656 195.904 24.6256 196.544 26.759C195.557 27.1323 194.344 27.319 192.904 27.319C192.37 27.319 191.93 27.279 191.584 27.199C191.237 27.1456 190.864 27.0256 190.464 26.839C190.09 26.6256 189.81 26.279 189.624 25.799C189.437 25.2923 189.344 24.6523 189.344 23.879C189.344 23.3723 189.357 22.4256 189.384 21.039C189.41 19.6256 189.424 18.599 189.424 17.959ZM207.496 18.479V11.079C207.496 8.75897 207.456 6.63897 207.376 4.71897C203.963 4.71897 201.456 4.79897 199.856 4.95897C199.723 4.55897 199.656 3.90564 199.656 2.99897C199.656 2.49231 199.75 2.07897 199.936 1.75897C200.123 1.43897 200.416 1.21231 200.816 1.07897C201.243 0.945639 201.643 0.865639 202.016 0.838973C202.39 0.78564 202.896 0.758974 203.536 0.758974H212.136C216.616 0.758974 219.656 0.705641 221.256 0.598974C221.39 1.18564 221.456 1.79897 221.456 2.43897C221.456 3.95897 220.443 4.71897 218.416 4.71897H213.856C213.723 7.25231 213.656 9.71897 213.656 12.119V19.599C213.656 22.2923 213.976 24.679 214.616 26.759C213.443 27.1323 212.163 27.319 210.776 27.319C209.496 27.319 208.616 27.039 208.136 26.479C207.656 25.8923 207.416 25.0256 207.416 23.879C207.416 23.479 207.43 22.6923 207.456 21.519C207.483 20.3456 207.496 19.3323 207.496 18.479ZM224.173 24.599C224.173 24.1456 224.386 23.559 224.813 22.839C225.266 22.0923 225.88 21.279 226.653 20.399C227.426 19.4923 228.16 18.6656 228.853 17.919C229.573 17.1456 230.386 16.3056 231.293 15.399C232.2 14.4656 232.826 13.799 233.173 13.399C231.706 11.0256 230.12 8.95897 228.413 7.19897C226.733 5.41231 225.293 4.13231 224.093 3.35897C225.773 1.30564 227.386 0.278973 228.933 0.278973C229.84 0.278973 230.6 0.478973 231.213 0.878973C231.853 1.27897 232.44 1.94564 232.973 2.87897C234.333 5.27897 235.52 7.73231 236.533 10.239C239.173 5.83897 240.626 2.51897 240.893 0.278973C244.76 0.705641 246.693 1.70564 246.693 3.27897C246.693 3.62564 246.533 4.09231 246.213 4.67897C245.92 5.23897 245.453 5.91897 244.813 6.71897C244.2 7.51897 243.64 8.22564 243.133 8.83897C242.626 9.42564 241.92 10.2256 241.013 11.239C240.133 12.2523 239.52 12.959 239.173 13.359C240.746 16.0256 242.453 18.3856 244.293 20.439C246.133 22.4923 247.68 23.9056 248.933 24.679C247.333 26.6256 245.64 27.599 243.853 27.599C242.413 27.599 241.36 26.959 240.693 25.679C237.84 20.4256 236.226 17.4123 235.853 16.639C234.573 18.1056 233.333 19.919 232.133 22.079C230.933 24.2123 230.2 26.0523 229.933 27.599C228.36 27.4656 227 27.159 225.853 26.679C224.733 26.1723 224.173 25.479 224.173 24.599Z" fill="#EEEEEE"/>
</svg>
