<svg width="180" height="180" viewBox="0 0 180 180" fill="none" xmlns="http://www.w3.org/2000/svg">
<path d="M44.3031 0.19078C44.058 0.322768 43.7658 0.577315 43.5961 0.813007L43.3133 1.22782L43.2662 7.3181C43.2285 12.3525 43.2002 13.4178 43.0965 13.3895C43.0211 13.3801 41.3998 11.8528 39.4863 9.99556C37.5728 8.14774 35.8667 6.55446 35.697 6.46018C35.2257 6.19621 34.2548 6.27163 33.8023 6.61103C33.0954 7.15783 32.8786 8.15717 33.3027 8.91138C33.4253 9.13764 35.4613 11.174 38.2232 13.8421C40.8154 16.3404 43.0117 18.471 43.106 18.5747C43.2568 18.7539 43.2662 19.0838 43.2662 22.6664C43.2662 24.9761 43.2285 26.5788 43.1814 26.6166C43.1342 26.6448 42.1445 25.7681 40.9851 24.6745C39.8257 23.5808 38.7605 22.6004 38.6003 22.5061C37.7613 21.9876 36.6019 22.2987 36.1117 23.1849C35.8384 23.6563 35.829 24.467 36.074 24.8913C36.1683 25.0516 37.0732 25.966 38.0818 26.9371C39.0904 27.8987 40.674 29.3977 41.5978 30.2745L43.2662 31.8678V36.1479C43.2662 39.5608 43.2379 40.4281 43.1437 40.4281C43.0777 40.4281 41.758 39.1271 40.2027 37.5244C38.6568 35.9311 35.6027 32.8105 33.4253 30.5762L29.4757 26.5223L29.5417 23.9768C29.5794 22.5815 29.6454 20.1586 29.6925 18.603C29.8433 13.7289 29.8433 13.1727 29.6736 12.8521C29.5888 12.6919 29.4003 12.4562 29.2495 12.3148C28.3257 11.438 26.6478 11.8717 26.2991 13.0784C26.2614 13.2293 26.1765 14.9639 26.12 16.9249C25.9786 21.8461 25.9315 22.6098 25.7806 22.6098C25.7146 22.6098 23.622 20.5168 21.1241 17.9525C18.5507 15.3128 16.4487 13.2293 16.2696 13.1444C16.0905 13.0596 15.7229 12.9936 15.4401 12.9936C14.1393 12.9936 13.3098 14.3134 13.8471 15.5013C13.9696 15.7559 15.4684 17.368 18.4659 20.4414C20.9073 22.9492 22.9056 25.061 22.9056 25.127C22.9056 25.2778 23.2261 25.2778 17.7307 25.1081C13.6114 24.9761 13.1778 24.9761 12.8479 25.1081C12.3766 25.3061 12.075 25.5889 11.8676 26.0509C11.368 27.1445 11.9995 28.3324 13.2061 28.5492C13.4889 28.6058 16.6655 28.7284 20.2663 28.8321L26.8175 29.0112L27.9015 30.1236C36.4039 38.8254 40.3441 42.8981 40.297 42.9736C40.231 43.0773 31.7945 43.1056 31.54 43.0113C31.4646 42.983 29.9187 41.3803 28.1278 39.4665C26.0069 37.2038 24.7438 35.9311 24.5458 35.8462C23.0188 35.2052 21.4634 36.7419 22.1421 38.2126C22.2364 38.4294 23.1507 39.4853 24.2536 40.6638C25.3282 41.8045 26.2048 42.7944 26.2048 42.851C26.2048 42.9453 25.3659 42.9736 22.3118 42.9736H18.4094L13.6586 38.0995C8.48357 32.8011 8.50242 32.8105 7.61636 32.9142C6.67374 33.0274 6.03276 33.7344 6.03276 34.6678C6.03276 34.9318 6.08932 35.29 6.16473 35.4597C6.23071 35.6294 7.81431 37.3264 9.69012 39.2496C11.5659 41.1635 13.0836 42.7756 13.0647 42.8322C13.0458 42.8887 10.9344 42.9453 7.10735 42.9736C1.46106 43.0207 1.15942 43.0301 0.876636 43.1998C0.358195 43.5204 0 44.1709 0 44.8025C0 45.1796 0.282786 45.7924 0.574998 46.0564C1.13114 46.5655 1.05573 46.5561 7.18276 46.5561C10.3123 46.5561 12.9233 46.5938 12.9987 46.6409C13.0647 46.6881 13.1118 46.7635 13.093 46.8201C13.0741 46.8672 11.5094 48.4982 9.62414 50.4309C7.66349 52.439 6.14588 54.0699 6.07047 54.2491C5.9008 54.645 5.9008 55.3333 6.07047 55.7292C6.44751 56.6437 7.67292 57.0679 8.57783 56.5966C8.71923 56.5211 10.9815 54.2585 13.6114 51.5622L18.3999 46.6504H22.3024C25.6581 46.6504 26.2048 46.6692 26.2048 46.7918C26.2048 46.8672 25.3187 47.8571 24.2347 48.9884C23.1507 50.1292 22.1893 51.2039 22.095 51.3736C22.0102 51.5528 21.9347 51.9016 21.9347 52.175C21.9347 53.5043 23.3204 54.3622 24.5458 53.806C24.6778 53.74 26.2614 52.1467 28.0523 50.2612C29.8527 48.3756 31.3986 46.7918 31.5023 46.7352C31.7757 46.5938 40.8154 46.7352 40.8154 46.8766C40.8154 46.9426 37.6953 50.2235 33.8777 54.1736L26.9495 61.3575L20.2852 61.3764C13.734 61.4047 13.6114 61.4047 13.2438 61.6027C12.6971 61.8855 12.3389 62.5077 12.3389 63.1771C12.3389 63.4599 12.3954 63.8182 12.4803 63.9784C12.6782 64.3744 13.2249 64.8175 13.6397 64.9306C13.8659 64.9966 15.6758 65.0343 18.5979 65.0343C22.472 65.0343 23.1979 65.0532 23.1696 65.1663C23.1507 65.2323 21.1712 67.3347 18.7675 69.8236C16.3639 72.3125 14.3184 74.4714 14.2241 74.6223C13.8565 75.1785 13.9131 76.027 14.3467 76.6587C14.8085 77.3092 15.9397 77.526 16.6561 77.1018C16.8635 76.9698 18.9278 74.9145 21.2278 72.5293C23.5278 70.1441 25.4884 68.136 25.5733 68.07C25.6581 67.9946 25.7712 67.9663 25.8278 68.004C25.8937 68.0418 25.922 69.6445 25.922 72.9159C25.922 78.1859 25.9126 78.1294 26.4499 78.629C26.8081 78.959 27.1474 79.0816 27.7224 79.0816C28.2126 79.0816 28.7687 78.8553 29.0515 78.5442C29.5134 78.0445 29.504 78.1294 29.504 70.8324V63.9973L30.2864 63.1677C32.9351 60.3299 43.04 49.95 43.1437 49.95C43.2474 49.95 43.2662 50.7608 43.2662 54.2585V58.5764L39.7691 61.8666C37.8556 63.6767 36.2154 65.2889 36.1306 65.4491C35.9138 65.864 35.9326 66.7219 36.1589 67.1084C36.4699 67.6458 36.9789 67.9852 37.5539 68.0323C37.8273 68.0512 38.2138 68.0229 38.4023 67.9569C38.6285 67.8815 39.4203 67.2027 40.8814 65.8263C42.0597 64.7138 43.0777 63.8087 43.1437 63.8087C43.2379 63.8087 43.2662 64.5629 43.2662 67.7118V71.6054L38.3552 76.357C35.4142 79.2041 33.3687 81.2499 33.265 81.4573C33.0671 81.8439 33.0294 82.5038 33.1896 82.9186C33.4064 83.5126 34.2171 84.0688 34.8486 84.0782C35.5744 84.0782 35.8384 83.8708 39.4863 80.3355C41.4281 78.4499 43.0777 76.9132 43.1437 76.9132C43.2379 76.9132 43.2662 78.1105 43.2851 82.8432L43.3133 88.7732L43.5961 89.188C44.3502 90.2722 45.8396 90.2722 46.6125 89.1786L46.8953 88.7732L46.9236 82.8432C46.9424 78.6102 46.9801 76.9132 47.0555 76.9132C47.1121 76.9132 48.6957 78.4405 50.5904 80.3166C54.3514 84.0405 54.4834 84.1442 55.36 84.0405C56.2838 83.9368 56.9342 83.2109 56.9342 82.2964C56.9342 82.0324 56.8776 81.6742 56.8022 81.5045C56.7268 81.3254 54.719 79.2701 51.8063 76.4041L46.9424 71.6148V67.7118C46.9424 64.6478 46.9707 63.8087 47.065 63.8087C47.1215 63.8087 48.1396 64.7138 49.3178 65.8263C51.6272 68.004 51.7781 68.1078 52.6547 68.0323C53.8518 67.9286 54.5871 66.5899 54.0592 65.4774C53.9649 65.2606 52.617 63.9313 50.4207 61.8572L46.9424 58.5764V54.2208C46.9424 51.8167 46.9801 49.8558 47.0178 49.8558C47.1121 49.8558 49.299 52.0713 54.5776 57.4922C56.6231 59.5946 58.8477 61.8761 59.517 62.5549L60.7424 63.8087L60.5727 69.7199C60.337 77.7146 60.337 77.0735 60.5916 77.5449C61.1288 78.563 62.5145 78.7987 63.3817 78.0351C63.9567 77.5354 63.985 77.3374 64.0981 73.3307C64.2301 68.4566 64.2772 67.6552 64.428 67.6929C64.5034 67.7118 65.644 68.8431 66.9825 70.2196C71.7333 75.1031 73.5714 76.9415 73.8731 77.064C74.646 77.394 75.6263 77.0829 76.0788 76.3664C76.4087 75.8479 76.4558 75.0748 76.1919 74.5751C76.0976 74.4054 74.0616 72.2559 71.6673 69.8047C69.2636 67.3441 67.303 65.2889 67.303 65.2417C67.303 65.1852 67.3596 65.1286 67.4255 65.1098C67.4821 65.0909 69.6973 65.138 72.3366 65.2135L77.1251 65.3549L77.5493 65.1286C78.605 64.5724 78.8312 63.1865 78.0112 62.3097C77.8509 62.14 77.5775 61.9326 77.4173 61.8666C77.1816 61.7629 75.5603 61.6875 70.4419 61.5367C66.7657 61.433 63.6739 61.3293 63.5608 61.301C63.4477 61.2821 60.9592 58.8026 57.9145 55.6821C54.917 52.6087 51.7686 49.3844 50.9203 48.517C50.0719 47.6497 49.4027 46.8955 49.4404 46.8483C49.5064 46.7352 57.6694 46.7164 58.0371 46.8201C58.1596 46.8578 59.6961 48.4322 61.4682 50.3272C63.2403 52.2221 64.8333 53.8625 65.0313 53.9757C65.4366 54.2302 66.3133 54.2679 66.7186 54.0605C67.0202 53.9002 67.4161 53.4854 67.5858 53.1649C67.7649 52.8255 67.746 52.0336 67.5575 51.647C67.4632 51.4679 66.4829 50.346 65.3706 49.1581C64.2489 47.9702 63.3723 46.9615 63.4194 46.9143C63.4571 46.8766 65.2481 46.8483 67.3973 46.8578L71.2997 46.8861L75.9562 51.7413C80.8296 56.8228 81.1595 57.1151 81.9042 57.1151C82.3661 57.1151 83.0165 56.7663 83.3652 56.342C83.7423 55.8612 83.8083 55.1541 83.5349 54.5602C83.4124 54.2868 82.6206 53.3912 81.2066 51.9299C76.8235 47.3763 76.4935 47.018 76.6444 46.9238C76.7292 46.8672 78.8407 46.8483 82.5263 46.8955C86.721 46.9426 88.38 46.9238 88.6722 46.8483C90.2558 46.4147 90.482 44.2652 89.0304 43.4638C88.7759 43.3224 88.0972 43.2941 82.7148 43.2564C78.1997 43.2187 76.6821 43.181 76.6821 43.0961C76.6821 43.0396 78.2185 41.418 80.1038 39.5042C82.2341 37.317 83.5726 35.884 83.6574 35.6765C83.9779 34.9129 83.6857 34.0078 82.9693 33.4988C82.63 33.2631 82.4697 33.2159 82.0267 33.2254C81.7156 33.2254 81.3669 33.2913 81.2066 33.3762C81.0558 33.461 78.7558 35.7048 76.0976 38.3634L71.2714 43.2093L67.4727 43.181C65.3801 43.1621 63.6362 43.115 63.5891 43.0678C63.542 43.0207 64.2583 42.2005 65.2387 41.1729C66.1907 40.183 67.1333 39.1836 67.3219 38.948C68.0948 38.0335 67.8591 36.7513 66.8223 36.1385C66.4264 35.9028 65.5874 35.8934 65.1727 36.1196C65.0124 36.2045 63.4006 37.8261 61.6002 39.721L58.3198 43.1621H54.21C51.9477 43.1621 50.0436 43.1244 49.9682 43.0773C49.9023 43.0301 49.8551 42.9547 49.874 42.8981C49.8928 42.851 52.7113 39.9096 56.133 36.3648C59.5547 32.8294 62.5711 29.6994 62.8256 29.426L63.3063 28.9263H69.9329C77.3042 28.9263 76.9271 28.9546 77.4833 28.2852C78.1808 27.4368 77.9263 26.0697 76.9837 25.5512C76.7103 25.4098 76.2202 25.391 71.8841 25.3438C68.6227 25.3155 67.0768 25.2684 67.0485 25.193C67.0296 25.1458 69.0563 22.9869 71.5448 20.4037C74.0333 17.8205 76.1353 15.5956 76.2108 15.4448C76.4276 15.0205 76.3898 14.1437 76.1353 13.7289C75.6358 12.9087 74.6931 12.5976 73.8542 12.9841C73.5808 13.1067 72.1952 14.4831 69.0091 17.7828C66.5489 20.3377 64.5034 22.4212 64.4657 22.4212C64.3149 22.4212 64.2866 21.7424 64.2866 17.2266V12.4656L64.0133 12.0319C63.6928 11.5323 63.0989 11.2023 62.5333 11.2023C61.8358 11.2117 61.044 11.7397 60.8084 12.3619C60.7329 12.541 60.7047 14.8791 60.7047 19.5175V26.3997L58.2727 28.9075C56.9342 30.2933 53.8895 33.4422 51.5141 35.9028C49.1387 38.3634 47.1404 40.3904 47.065 40.4092C46.9613 40.4375 46.9424 39.655 46.9424 36.0631V31.6792L50.317 28.5021C52.1645 26.7485 53.7858 25.1458 53.9178 24.9384C54.3891 24.1559 54.144 23.1189 53.3617 22.5627C53.0223 22.3175 52.8715 22.2798 52.3813 22.2798C51.9572 22.2798 51.7121 22.3364 51.4953 22.4684C51.3256 22.5721 50.2982 23.5054 49.1953 24.5425C48.0924 25.5795 47.1404 26.4374 47.0744 26.4563C46.9613 26.4846 46.9424 25.8246 46.9424 22.5909V18.6973L51.7404 13.9835C54.3797 11.4003 56.6326 9.10936 56.7457 8.91138C57.0567 8.36458 56.9813 7.47837 56.5948 6.98813C56.4346 6.79015 56.1612 6.55446 55.9821 6.46961C55.5768 6.25278 54.7567 6.25278 54.3608 6.45076C54.1912 6.54503 52.5133 8.11946 50.6375 9.96728C48.7523 11.8151 47.1498 13.333 47.0744 13.3518C46.9707 13.3801 46.9424 12.409 46.9236 7.30868L46.8953 1.22782L46.6125 0.822434C46.0564 0.0399374 45.1232 -0.21461 44.3031 0.19078Z" fill="black" fill-opacity="0.2"/>
<path d="M134.303 90.1908C134.058 90.3228 133.766 90.5773 133.596 90.813L133.313 91.2278L133.266 97.3181C133.229 102.352 133.2 103.418 133.097 103.39C133.021 103.38 131.4 101.853 129.486 99.9956C127.573 98.1477 125.867 96.5545 125.697 96.4602C125.226 96.1962 124.255 96.2716 123.802 96.611C123.095 97.1578 122.879 98.1572 123.303 98.9114C123.425 99.1376 125.461 101.174 128.223 103.842C130.815 106.34 133.012 108.471 133.106 108.575C133.257 108.754 133.266 109.084 133.266 112.666C133.266 114.976 133.229 116.579 133.181 116.617C133.134 116.645 132.144 115.768 130.985 114.674C129.826 113.581 128.76 112.6 128.6 112.506C127.761 111.988 126.602 112.299 126.112 113.185C125.838 113.656 125.829 114.467 126.074 114.891C126.168 115.052 127.073 115.966 128.082 116.937C129.09 117.899 130.674 119.398 131.598 120.274L133.266 121.868V126.148C133.266 129.561 133.238 130.428 133.144 130.428C133.078 130.428 131.758 129.127 130.203 127.524C128.657 125.931 125.603 122.811 123.425 120.576L119.476 116.522L119.542 113.977C119.579 112.582 119.645 110.159 119.693 108.603C119.843 103.729 119.843 103.173 119.674 102.852C119.589 102.692 119.4 102.456 119.249 102.315C118.326 101.438 116.648 101.872 116.299 103.078C116.261 103.229 116.177 104.964 116.12 106.925C115.979 111.846 115.931 112.61 115.781 112.61C115.715 112.61 113.622 110.517 111.124 107.953C108.551 105.313 106.449 103.229 106.27 103.144C106.091 103.06 105.723 102.994 105.44 102.994C104.139 102.994 103.31 104.313 103.847 105.501C103.97 105.756 105.468 107.368 108.466 110.441C110.907 112.949 112.906 115.061 112.906 115.127C112.906 115.278 113.226 115.278 107.731 115.108C103.611 114.976 103.178 114.976 102.848 115.108C102.377 115.306 102.075 115.589 101.868 116.051C101.368 117.145 102 118.332 103.206 118.549C103.489 118.606 106.666 118.728 110.266 118.832L116.818 119.011L117.902 120.124C126.404 128.825 130.344 132.898 130.297 132.974C130.231 133.077 121.795 133.106 121.54 133.011C121.465 132.983 119.919 131.38 118.128 129.466C116.007 127.204 114.744 125.931 114.546 125.846C113.019 125.205 111.463 126.742 112.142 128.213C112.236 128.429 113.151 129.485 114.254 130.664C115.328 131.805 116.205 132.794 116.205 132.851C116.205 132.945 115.366 132.974 112.312 132.974H108.409L103.659 128.099C98.4836 122.801 98.5024 122.811 97.6164 122.914C96.6737 123.027 96.0328 123.734 96.0328 124.668C96.0328 124.932 96.0893 125.29 96.1647 125.46C96.2307 125.629 97.8143 127.326 99.6901 129.25C101.566 131.163 103.084 132.776 103.065 132.832C103.046 132.889 100.934 132.945 97.1073 132.974C91.4611 133.021 91.1594 133.03 90.8766 133.2C90.3582 133.52 90 134.171 90 134.803C90 135.18 90.2828 135.792 90.575 136.056C91.1311 136.566 91.0557 136.556 97.1828 136.556C100.312 136.556 102.923 136.594 102.999 136.641C103.065 136.688 103.112 136.763 103.093 136.82C103.074 136.867 101.509 138.498 99.6241 140.431C97.6635 142.439 96.1459 144.07 96.0705 144.249C95.9008 144.645 95.9008 145.333 96.0705 145.729C96.4475 146.644 97.6729 147.068 98.5778 146.597C98.7192 146.521 100.982 144.258 103.611 141.562L108.4 136.65H112.302C115.658 136.65 116.205 136.669 116.205 136.792C116.205 136.867 115.319 137.857 114.235 138.988C113.151 140.129 112.189 141.204 112.095 141.374C112.01 141.553 111.935 141.902 111.935 142.175C111.935 143.504 113.32 144.362 114.546 143.806C114.678 143.74 116.261 142.147 118.052 140.261C119.853 138.376 121.399 136.792 121.502 136.735C121.776 136.594 130.815 136.735 130.815 136.877C130.815 136.943 127.695 140.223 123.878 144.174L116.949 151.358L110.285 151.376C103.734 151.405 103.611 151.405 103.244 151.603C102.697 151.885 102.339 152.508 102.339 153.177C102.339 153.46 102.395 153.818 102.48 153.978C102.678 154.374 103.225 154.817 103.64 154.931C103.866 154.997 105.676 155.034 108.598 155.034C112.472 155.034 113.198 155.053 113.17 155.166C113.151 155.232 111.171 157.335 108.768 159.824C106.364 162.312 104.318 164.471 104.224 164.622C103.857 165.179 103.913 166.027 104.347 166.659C104.809 167.309 105.94 167.526 106.656 167.102C106.863 166.97 108.928 164.915 111.228 162.529C113.528 160.144 115.488 158.136 115.573 158.07C115.658 157.995 115.771 157.966 115.828 158.004C115.894 158.042 115.922 159.644 115.922 162.916C115.922 168.186 115.913 168.129 116.45 168.629C116.808 168.959 117.147 169.082 117.722 169.082C118.213 169.082 118.769 168.855 119.052 168.544C119.513 168.045 119.504 168.129 119.504 160.832V153.997L120.286 153.168C122.935 150.33 133.04 139.95 133.144 139.95C133.247 139.95 133.266 140.761 133.266 144.258V148.576L129.769 151.867C127.856 153.677 126.215 155.289 126.131 155.449C125.914 155.864 125.933 156.722 126.159 157.108C126.47 157.646 126.979 157.985 127.554 158.032C127.827 158.051 128.214 158.023 128.402 157.957C128.629 157.881 129.42 157.203 130.881 155.826C132.06 154.714 133.078 153.809 133.144 153.809C133.238 153.809 133.266 154.563 133.266 157.712V161.605L128.355 166.357C125.414 169.204 123.369 171.25 123.265 171.457C123.067 171.844 123.029 172.504 123.19 172.919C123.406 173.513 124.217 174.069 124.849 174.078C125.574 174.078 125.838 173.871 129.486 170.335C131.428 168.45 133.078 166.913 133.144 166.913C133.238 166.913 133.266 168.111 133.285 172.843L133.313 178.773L133.596 179.188C134.35 180.272 135.84 180.272 136.613 179.179L136.895 178.773L136.924 172.843C136.942 168.61 136.98 166.913 137.056 166.913C137.112 166.913 138.696 168.44 140.59 170.317C144.351 174.041 144.483 174.144 145.36 174.041C146.284 173.937 146.934 173.211 146.934 172.296C146.934 172.032 146.878 171.674 146.802 171.504C146.727 171.325 144.719 169.27 141.806 166.404L136.942 161.615V157.712C136.942 154.648 136.971 153.809 137.065 153.809C137.122 153.809 138.14 154.714 139.318 155.826C141.627 158.004 141.778 158.108 142.655 158.032C143.852 157.929 144.587 156.59 144.059 155.477C143.965 155.261 142.617 153.931 140.421 151.857L136.942 148.576V144.221C136.942 141.817 136.98 139.856 137.018 139.856C137.112 139.856 139.299 142.071 144.578 147.492C146.623 149.595 148.848 151.876 149.517 152.555L150.742 153.809L150.573 159.72C150.337 167.715 150.337 167.073 150.592 167.545C151.129 168.563 152.514 168.799 153.382 168.035C153.957 167.535 153.985 167.337 154.098 163.331C154.23 158.457 154.277 157.655 154.428 157.693C154.503 157.712 155.644 158.843 156.983 160.22C161.733 165.103 163.571 166.941 163.873 167.064C164.646 167.394 165.626 167.083 166.079 166.366C166.409 165.848 166.456 165.075 166.192 164.575C166.098 164.405 164.062 162.256 161.667 159.805C159.264 157.344 157.303 155.289 157.303 155.242C157.303 155.185 157.36 155.129 157.426 155.11C157.482 155.091 159.697 155.138 162.337 155.213L167.125 155.355L167.549 155.129C168.605 154.572 168.831 153.187 168.011 152.31C167.851 152.14 167.578 151.933 167.417 151.867C167.182 151.763 165.56 151.688 160.442 151.537C156.766 151.433 153.674 151.329 153.561 151.301C153.448 151.282 150.959 148.803 147.915 145.682C144.917 142.609 141.769 139.384 140.92 138.517C140.072 137.65 139.403 136.895 139.44 136.848C139.506 136.735 147.669 136.716 148.037 136.82C148.16 136.858 149.696 138.432 151.468 140.327C153.24 142.222 154.833 143.863 155.031 143.976C155.437 144.23 156.313 144.268 156.719 144.061C157.02 143.9 157.416 143.485 157.586 143.165C157.765 142.825 157.746 142.034 157.558 141.647C157.463 141.468 156.483 140.346 155.371 139.158C154.249 137.97 153.372 136.961 153.419 136.914C153.457 136.877 155.248 136.848 157.397 136.858L161.3 136.886L165.956 141.741C170.83 146.823 171.16 147.115 171.904 147.115C172.366 147.115 173.016 146.766 173.365 146.342C173.742 145.861 173.808 145.154 173.535 144.56C173.412 144.287 172.621 143.391 171.207 141.93C166.823 137.376 166.494 137.018 166.644 136.924C166.729 136.867 168.841 136.848 172.526 136.895C176.721 136.943 178.38 136.924 178.672 136.848C180.256 136.415 180.482 134.265 179.03 133.464C178.776 133.322 178.097 133.294 172.715 133.256C168.2 133.219 166.682 133.181 166.682 133.096C166.682 133.04 168.219 131.418 170.104 129.504C172.234 127.317 173.573 125.884 173.657 125.677C173.978 124.913 173.686 124.008 172.969 123.499C172.63 123.263 172.47 123.216 172.027 123.225C171.716 123.225 171.367 123.291 171.207 123.376C171.056 123.461 168.756 125.705 166.098 128.363L161.271 133.209L157.473 133.181C155.38 133.162 153.636 133.115 153.589 133.068C153.542 133.021 154.258 132.2 155.239 131.173C156.191 130.183 157.133 129.184 157.322 128.948C158.095 128.033 157.859 126.751 156.822 126.139C156.426 125.903 155.587 125.893 155.173 126.12C155.012 126.204 153.401 127.826 151.6 129.721L148.32 133.162H144.21C141.948 133.162 140.044 133.124 139.968 133.077C139.902 133.03 139.855 132.955 139.874 132.898C139.893 132.851 142.711 129.91 146.133 126.365C149.555 122.829 152.571 119.699 152.826 119.426L153.306 118.926H159.933C167.304 118.926 166.927 118.955 167.483 118.285C168.181 117.437 167.926 116.07 166.984 115.551C166.71 115.41 166.22 115.391 161.884 115.344C158.623 115.316 157.077 115.268 157.048 115.193C157.03 115.146 159.056 112.987 161.545 110.404C164.033 107.821 166.135 105.596 166.211 105.445C166.428 105.021 166.39 104.144 166.135 103.729C165.636 102.909 164.693 102.598 163.854 102.984C163.581 103.107 162.195 104.483 159.009 107.783C156.549 110.338 154.503 112.421 154.466 112.421C154.315 112.421 154.287 111.742 154.287 107.227V102.466L154.013 102.032C153.693 101.532 153.099 101.202 152.533 101.202C151.836 101.212 151.044 101.74 150.808 102.362C150.733 102.541 150.705 104.879 150.705 109.518V116.4L148.273 118.907C146.934 120.293 143.89 123.442 141.514 125.903C139.139 128.363 137.14 130.39 137.065 130.409C136.961 130.438 136.942 129.655 136.942 126.063V121.679L140.317 118.502C142.165 116.749 143.786 115.146 143.918 114.938C144.389 114.156 144.144 113.119 143.362 112.563C143.022 112.318 142.872 112.28 142.381 112.28C141.957 112.28 141.712 112.336 141.495 112.468C141.326 112.572 140.298 113.505 139.195 114.542C138.092 115.58 137.14 116.437 137.074 116.456C136.961 116.485 136.942 115.825 136.942 112.591V108.697L141.74 103.983C144.38 101.4 146.633 99.1094 146.746 98.9114C147.057 98.3646 146.981 97.4784 146.595 96.9881C146.435 96.7902 146.161 96.5545 145.982 96.4696C145.577 96.2528 144.757 96.2528 144.361 96.4508C144.191 96.545 142.513 98.1195 140.637 99.9673C138.752 101.815 137.15 103.333 137.074 103.352C136.971 103.38 136.942 102.409 136.924 97.3087L136.895 91.2278L136.613 90.8224C136.056 90.0399 135.123 89.7854 134.303 90.1908Z" fill="black" fill-opacity="0.2"/>
</svg>
